<svg width="1200" height="630" viewBox="0 0 1200 630" fill="none" xmlns="http://www.w3.org/2000/svg">
  <rect width="1200" height="630" fill="#F6FAF6"/>
  <circle cx="160" cy="120" r="180" fill="#34C759" fill-opacity="0.18"/>
  <circle cx="1070" cy="110" r="150" fill="#34C759" fill-opacity="0.14"/>
  <rect x="46" y="46" width="1108" height="538" rx="38" fill="white"/>
  <rect x="46.5" y="46.5" width="1107" height="537" rx="37.5" stroke="#101211" stroke-opacity="0.08"/>
  <rect x="98" y="94" width="72" height="72" rx="24" fill="#34C759"/>
  <path d="M147.906 140.232C142.939 145.199 128.044 136.068 118.289 126.312C108.533 116.557 99.4026 101.662 104.369 96.6955L111.688 89.3769C113.632 87.4329 116.757 87.3273 118.825 89.1317L129.81 98.7169C132.223 100.823 132.355 104.517 130.1 106.772L124.894 111.978C124.525 112.347 124.419 112.903 124.625 113.38C126.153 116.913 128.805 120.679 132.176 124.05C135.546 127.42 139.313 130.073 142.846 131.6C143.322 131.806 143.879 131.7 144.248 131.332L149.454 126.125C151.709 123.87 155.403 124.002 157.509 126.415L167.094 137.4C168.899 139.469 168.793 142.593 166.849 144.537L159.531 151.856C156.322 155.065 150.966 154.618 147.906 140.232Z" fill="#101211"/>
  <circle cx="149.5" cy="109.5" r="15.5" stroke="#101211" stroke-width="6"/>
  <text x="190" y="122" fill="#101211" font-family="Arial, sans-serif" font-size="46" font-weight="900">First Ring</text>
  <text x="190" y="154" fill="#34C759" font-family="Arial, sans-serif" font-size="16" font-weight="800" letter-spacing="2.5">MISSED-CALL REVENUE RECOVERY</text>
  <text x="98" y="278" fill="#101211" font-family="Arial, sans-serif" font-size="86" font-weight="900">A missed call can cost you a $400 job.</text>
  <text x="98" y="360" fill="#101211" fill-opacity="0.62" font-family="Arial, sans-serif" font-size="31" font-weight="700">First Ring answers missed and after-hours calls for exterior cleaning</text>
  <text x="98" y="401" fill="#101211" fill-opacity="0.62" font-family="Arial, sans-serif" font-size="31" font-weight="700">businesses before the customer hires the next company.</text>
  <rect x="98" y="470" width="256" height="50" rx="25" fill="#101211"/>
  <rect x="372" y="470" width="260" height="50" rx="25" fill="#101211"/>
  <rect x="650" y="470" width="336" height="50" rx="25" fill="#101211"/>
  <text x="128" y="502" fill="white" font-family="Arial, sans-serif" font-size="22" font-weight="800">Answers when you can’t</text>
  <text x="403" y="502" fill="white" font-family="Arial, sans-serif" font-size="22" font-weight="800">Captures lead details</text>
  <text x="680" y="502" fill="white" font-family="Arial, sans-serif" font-size="22" font-weight="800">Sends follow-up-ready summaries</text>
</svg>
