<svg width="512" height="512" viewBox="0 0 512 512" fill="none" xmlns="http://www.w3.org/2000/svg">
  <rect width="512" height="512" rx="132" fill="#101211"/>
  <rect x="74" y="74" width="364" height="364" rx="108" fill="#34C759"/>
  <path d="M316.775 308.406C301.529 323.652 255.824 295.623 225.887 265.686C195.951 235.75 167.922 190.045 183.168 174.799L205.628 152.339C211.592 146.375 221.188 146.051 227.538 151.591L261.241 181.003C268.644 187.463 269.05 198.795 262.131 205.714L246.156 221.689C245.023 222.822 244.698 224.529 245.331 225.992C250.019 236.832 258.157 248.382 268.495 258.72C278.833 269.058 290.383 277.196 301.223 281.884C302.686 282.517 304.393 282.192 305.526 281.059L321.501 265.084C328.42 258.165 339.752 258.571 346.212 265.974L375.624 299.677C381.164 306.027 380.84 315.623 374.876 321.587L352.416 344.047C342.572 353.891 326.139 352.518 316.775 308.406Z" fill="#101211"/>
  <circle cx="322" cy="177" r="49" stroke="#101211" stroke-width="18"/>
</svg>
